<svg xmlns="http://www.w3.org/2000/svg" style="display: none;">

  <symbol id="logoIcon">
    <path d="M81.7148 19.1191C82.3242 19.1191 82.9219 19.1895 83.5078 19.3301C84.1055 19.4707 84.6738 19.6816 85.2129 19.9629C85.752 20.2324 86.2266 20.5957 86.6367 21.0527C87.0586 21.5098 87.2871 22.0547 87.3223 22.6875V23.4258V29.0332C87.252 29.7363 86.8652 30.1172 86.1621 30.1758C85.834 30.1758 85.5469 30.0703 85.3008 29.8594C85.0664 29.6367 84.9492 29.3613 84.9492 29.0332V23.2324C84.9258 22.8691 84.7852 22.5703 84.5273 22.3359C84.2812 22.0898 84 21.8965 83.6836 21.7559C83.3789 21.6152 83.0566 21.5098 82.7168 21.4395C82.3887 21.3691 82.0547 21.334 81.7148 21.334C81.375 21.334 81.0352 21.3691 80.6953 21.4395C80.3672 21.5098 80.0449 21.6152 79.7285 21.7559C79.4238 21.8965 79.1426 22.0898 78.8848 22.3359C78.6387 22.5703 78.5039 22.8691 78.4805 23.2324V29.0332C78.4219 29.7363 78.041 30.1172 77.3379 30.1758C77.0098 30.1758 76.7227 30.0703 76.4766 29.8594C76.2422 29.6367 76.125 29.3613 76.125 29.0332V23.4258V22.6875C76.1602 22.0547 76.3828 21.5098 76.793 21.0527C77.2031 20.5957 77.6777 20.2324 78.2168 19.9629C78.7559 19.6816 79.3184 19.4707 79.9043 19.3301C80.502 19.1895 81.1055 19.1191 81.7148 19.1191ZM93.1758 29.9648C92.1445 29.9297 91.3652 29.6895 90.8379 29.2441C90.3105 28.7871 89.9297 28.2773 89.6953 27.7148C89.4609 27.1406 89.3438 26.5605 89.3438 25.9746C89.3438 25.3652 89.4551 24.7793 89.6777 24.2168C89.9121 23.6426 90.293 23.1328 90.8203 22.6875C91.3594 22.2305 92.0391 21.9961 92.8594 21.9844H98.5547C99.375 21.9961 100.049 22.2305 100.576 22.6875C101.115 23.1328 101.496 23.6426 101.719 24.2168C101.953 24.7793 102.07 25.3652 102.07 25.9746C102.07 26.5605 101.953 27.1406 101.719 27.7148C101.484 28.2773 101.104 28.7871 100.576 29.2441C100.049 29.6895 99.2695 29.9297 98.2383 29.9648H93.1758ZM92.7891 24.3398C92.5664 24.3398 92.373 24.4336 92.209 24.6211C92.0449 24.7969 91.9219 25.0078 91.8398 25.2539C91.7695 25.4883 91.7344 25.7227 91.7344 25.957C91.7344 26.2031 91.7695 26.4492 91.8398 26.6953C91.9219 26.9297 92.0449 27.1406 92.209 27.3281C92.373 27.5039 92.5664 27.5977 92.7891 27.6094H98.625C98.8477 27.5977 99.041 27.5039 99.2051 27.3281C99.3691 27.1406 99.4863 26.9297 99.5566 26.6953C99.6387 26.4492 99.6797 26.2031 99.6797 25.957C99.6797 25.7227 99.6387 25.4883 99.5566 25.2539C99.4863 25.0078 99.3691 24.7969 99.2051 24.6211C99.041 24.4336 98.8477 24.3398 98.625 24.3398H92.7891ZM107.906 19.3125C108.234 19.3125 108.516 19.4238 108.75 19.6465C108.984 19.8574 109.107 20.127 109.119 20.4551V21.9844H115.096C115.424 21.9844 115.705 22.0957 115.939 22.3184C116.162 22.5527 116.273 22.834 116.273 23.1621C116.273 23.4902 116.156 23.7715 115.922 24.0059C115.699 24.2285 115.424 24.3398 115.096 24.3398H109.119V24.6914C109.107 25.1719 109.137 25.6172 109.207 26.0273C109.289 26.4258 109.477 26.7832 109.77 27.0996C110.062 27.416 110.432 27.5859 110.877 27.6094H115.166C115.494 27.6211 115.764 27.7441 115.975 27.9785C116.197 28.2129 116.309 28.4941 116.309 28.8223C116.297 29.1387 116.18 29.4082 115.957 29.6309C115.746 29.8418 115.482 29.9531 115.166 29.9648H110.279C109.459 29.918 108.779 29.6426 108.24 29.1387C107.713 28.623 107.332 27.9961 107.098 27.2578C106.875 26.5195 106.758 25.7344 106.746 24.9023V24.3398H104.725C104.396 24.3398 104.121 24.2227 103.898 23.9883C103.664 23.7656 103.547 23.4902 103.547 23.1621C103.547 22.834 103.658 22.5586 103.881 22.3359C104.115 22.1016 104.396 21.9844 104.725 21.9844H106.746V20.4551C106.758 20.1387 106.875 19.875 107.098 19.6641C107.32 19.4414 107.59 19.3242 107.906 19.3125ZM119.209 21.8086C119.525 21.8203 119.795 21.9375 120.018 22.1602C120.24 22.3711 120.357 22.6348 120.369 22.9512V29.0332C120.299 29.7363 119.912 30.1172 119.209 30.1758C118.881 30.1758 118.594 30.0703 118.348 29.8594C118.113 29.6367 117.996 29.3613 117.996 29.0332V22.9512C118.008 22.623 118.131 22.3535 118.365 22.1426C118.6 21.9199 118.881 21.8086 119.209 21.8086ZM117.732 19.5234C117.732 19.1953 117.873 18.9141 118.154 18.6797C118.436 18.4453 118.775 18.3281 119.174 18.3281C119.572 18.3281 119.912 18.4453 120.193 18.6797C120.475 18.9141 120.615 19.1953 120.615 19.5234C120.615 19.8633 120.475 20.1504 120.193 20.3848C119.912 20.6191 119.572 20.7363 119.174 20.7363C118.775 20.7363 118.436 20.6191 118.154 20.3848C117.873 20.1504 117.732 19.8633 117.732 19.5234ZM126.328 19.3125C126.656 19.3125 126.938 19.4238 127.172 19.6465C127.406 19.8574 127.529 20.127 127.541 20.4551V21.9844H133.518C133.846 21.9844 134.127 22.0957 134.361 22.3184C134.584 22.5527 134.695 22.834 134.695 23.1621C134.695 23.4902 134.578 23.7715 134.344 24.0059C134.121 24.2285 133.846 24.3398 133.518 24.3398H127.541V24.6914C127.529 25.1719 127.559 25.6172 127.629 26.0273C127.711 26.4258 127.898 26.7832 128.191 27.0996C128.484 27.416 128.854 27.5859 129.299 27.6094H133.588C133.916 27.6211 134.186 27.7441 134.396 27.9785C134.619 28.2129 134.73 28.4941 134.73 28.8223C134.719 29.1387 134.602 29.4082 134.379 29.6309C134.168 29.8418 133.904 29.9531 133.588 29.9648H128.701C127.881 29.918 127.201 29.6426 126.662 29.1387C126.135 28.623 125.754 27.9961 125.52 27.2578C125.297 26.5195 125.18 25.7344 125.168 24.9023V24.3398H123.146C122.818 24.3398 122.543 24.2227 122.32 23.9883C122.086 23.7656 121.969 23.4902 121.969 23.1621C121.969 22.834 122.08 22.5586 122.303 22.3359C122.537 22.1016 122.818 21.9844 123.146 21.9844H125.168V20.4551C125.18 20.1387 125.297 19.875 125.52 19.6641C125.742 19.4414 126.012 19.3242 126.328 19.3125ZM146.244 29.0332V24.7969C146.244 24.5039 146.092 24.3516 145.787 24.3398H139.635C139.412 24.3516 139.219 24.4512 139.055 24.6387C138.891 24.8145 138.768 25.0254 138.686 25.2715C138.615 25.5059 138.58 25.7461 138.58 25.9922C138.58 26.2266 138.615 26.4668 138.686 26.7129C138.768 26.9473 138.891 27.1582 139.055 27.3457C139.219 27.5215 139.412 27.6094 139.635 27.6094H144.135C144.463 27.6094 144.738 27.7266 144.961 27.9609C145.195 28.1836 145.312 28.459 145.312 28.7871C145.312 29.1152 145.195 29.3906 144.961 29.6133C144.738 29.8477 144.463 29.9648 144.135 29.9648H139.705C138.885 29.9531 138.205 29.7246 137.666 29.2793C137.139 28.8223 136.758 28.3125 136.523 27.75C136.301 27.1758 136.189 26.584 136.189 25.9746C136.189 25.3887 136.307 24.8145 136.541 24.252C136.775 23.6777 137.156 23.168 137.684 22.7227C138.211 22.2656 138.99 22.0195 140.021 21.9844H147.404C147.732 21.9844 148.014 22.0957 148.248 22.3184C148.482 22.5293 148.605 22.7988 148.617 23.127V29.0332C148.617 29.3613 148.494 29.6367 148.248 29.8594C148.014 30.0703 147.732 30.1758 147.404 30.1758C146.701 30.1172 146.314 29.7363 146.244 29.0332ZM156.492 21.7207C157.102 21.7207 157.699 21.791 158.285 21.9316C158.883 22.0723 159.451 22.2832 159.99 22.5645C160.529 22.834 161.004 23.1973 161.414 23.6543C161.836 24.1113 162.064 24.6562 162.1 25.2891V26.0273V29.0332C162.029 29.7363 161.643 30.1172 160.939 30.1758C160.611 30.1758 160.324 30.0703 160.078 29.8594C159.844 29.6367 159.727 29.3613 159.727 29.0332V28.2598V25.834C159.703 25.4707 159.562 25.1719 159.305 24.9375C159.059 24.6914 158.777 24.498 158.461 24.3574C158.156 24.2168 157.834 24.1113 157.494 24.041C157.166 23.9707 156.832 23.9355 156.492 23.9355C156.152 23.9355 155.812 23.9707 155.473 24.041C155.145 24.1113 154.822 24.2168 154.506 24.3574C154.201 24.498 153.92 24.6914 153.662 24.9375C153.416 25.1719 153.281 25.4707 153.258 25.834V28.2598V29.0332C153.199 29.7363 152.818 30.1172 152.115 30.1758C151.787 30.1758 151.5 30.0703 151.254 29.8594C151.02 29.6367 150.902 29.3613 150.902 29.0332V26.0273V25.2891C150.938 24.6562 151.16 24.1113 151.57 23.6543C151.98 23.1973 152.455 22.834 152.994 22.5645C153.533 22.2832 154.096 22.0723 154.682 21.9316C155.279 21.791 155.883 21.7207 156.492 21.7207ZM165.545 21.8086C165.861 21.8203 166.131 21.9375 166.354 22.1602C166.576 22.3711 166.693 22.6348 166.705 22.9512V29.0332C166.635 29.7363 166.248 30.1172 165.545 30.1758C165.217 30.1758 164.93 30.0703 164.684 29.8594C164.449 29.6367 164.332 29.3613 164.332 29.0332V22.9512C164.344 22.623 164.467 22.3535 164.701 22.1426C164.936 21.9199 165.217 21.8086 165.545 21.8086ZM164.068 19.5234C164.068 19.1953 164.209 18.9141 164.49 18.6797C164.771 18.4453 165.111 18.3281 165.51 18.3281C165.908 18.3281 166.248 18.4453 166.529 18.6797C166.811 18.9141 166.951 19.1953 166.951 19.5234C166.951 19.8633 166.811 20.1504 166.529 20.3848C166.248 20.6191 165.908 20.7363 165.51 20.7363C165.111 20.7363 164.771 20.6191 164.49 20.3848C164.209 20.1504 164.068 19.8633 164.068 19.5234ZM172.418 29.9648C171.387 29.9297 170.607 29.6895 170.08 29.2441C169.553 28.7871 169.172 28.2773 168.938 27.7148C168.703 27.1406 168.586 26.5605 168.586 25.9746C168.586 25.3652 168.697 24.7793 168.92 24.2168C169.154 23.6426 169.535 23.1328 170.062 22.6875C170.602 22.2305 171.281 21.9961 172.102 21.9844H178.781C179.109 21.9844 179.385 22.1016 179.607 22.3359C179.842 22.5586 179.959 22.834 179.959 23.1621C179.959 23.4902 179.842 23.7715 179.607 24.0059C179.385 24.2285 179.109 24.3398 178.781 24.3398H172.031C171.809 24.3398 171.615 24.4336 171.451 24.6211C171.287 24.7969 171.164 25.0078 171.082 25.2539C171.012 25.4883 170.977 25.7227 170.977 25.957C170.977 26.2031 171.012 26.4492 171.082 26.6953C171.164 26.9297 171.287 27.1406 171.451 27.3281C171.615 27.5039 171.809 27.5977 172.031 27.6094H178.781C179.109 27.6094 179.385 27.7266 179.607 27.9609C179.842 28.1836 179.959 28.459 179.959 28.7871C179.959 29.1152 179.842 29.3906 179.607 29.6133C179.385 29.8477 179.109 29.9648 178.781 29.9648H172.418Z" fill="white"/>
    <path d="M5.41669 24L17.0233 42L32.5 29L5.41669 24Z" stroke="#00C1EC" stroke-width="4" stroke-linecap="round" stroke-linejoin="round"/>
    <path d="M59.5833 24L47.9768 42L32.5 29L59.5833 24Z" stroke="#00C1EC" stroke-width="4" stroke-linecap="round" stroke-linejoin="round"/>
    <path d="M17.6042 42H47.3959L32.5 29L17.6042 42Z" stroke="#00C1EC" stroke-width="4" stroke-linecap="round" stroke-linejoin="round"/>
    <path d="M16.25 26L32.5 4L48.75 26" stroke="#00C1EC" stroke-width="4" stroke-linejoin="round"/>
  </symbol>

  <!-- Header icon -->
  <symbol id="headerIcon" viewBox="0 0 564 476">
    <circle cx="121" cy="77" r="45" fill="url(#paint0_linear_4_6748)" />
    <path d="M90 243C90 267.853 69.8528 288 45 288C20.1472 288 0 267.853 0 243C0 218.147 20.1472 198 45 198C69.8528 198 90 218.147 90 243Z" fill="url(#paint1_linear_4_6748)" />
    <circle cx="519" cy="45" r="45" fill="url(#paint2_linear_4_6748)" />
    <circle cx="76" cy="431" r="45" fill="url(#paint3_linear_4_6748)" />
    <path d="M21.1094 231.793V245.469C21.1094 246.576 21.2324 247.666 21.4785 248.686C22.6562 253.572 26.541 257.018 32.0254 257.018C37.5098 257.018 41.377 253.572 42.5547 248.686C42.7832 247.666 42.9238 246.576 42.9238 245.469V231.793H37.668V245.557C37.668 246.365 37.5625 247.156 37.3516 247.912C36.7012 250.268 34.9609 252.148 32.0078 252.148C29.0898 252.148 27.3496 250.268 26.6816 247.912C26.4707 247.156 26.3652 246.365 26.3652 245.557V231.793H21.1094ZM44.998 257H51.4844L57.6719 247.93L63.8594 257H70.3633L60.7129 243.693L69.3262 231.811H62.875L57.6719 239.422L52.4688 231.811H46.0176L54.6309 243.693L44.998 257Z" fill="#00C4F0" />
    <path d="M101.055 75.7949V81.1035L116.102 88.4512V82.9492L106.135 78.4492L116.102 73.9668V68.4648L101.055 75.7949ZM135.314 60.9766L119.266 96.0449H124.803L140.852 60.9766H135.314Z" fill="#00C4F0" />
    <path d="M503.109 33.793V47.4688C503.109 48.5762 503.232 49.666 503.479 50.6855C504.656 55.5723 508.541 59.0176 514.025 59.0176C519.51 59.0176 523.377 55.5723 524.555 50.6855C524.783 49.666 524.924 48.5762 524.924 47.4688V33.793H519.668V47.5566C519.668 48.3652 519.562 49.1562 519.352 49.9121C518.701 52.2676 516.961 54.1484 514.008 54.1484C511.09 54.1484 509.35 52.2676 508.682 49.9121C508.471 49.1562 508.365 48.3652 508.365 47.5566V33.793H503.109ZM529.424 59H534.697V33.793H529.424V59Z" fill="#00C4F0" />
    <path d="M60.6289 430.023V424.662H67.0098C68.0469 424.662 68.5215 424.75 68.9434 424.926C69.9629 425.33 70.7188 426.174 70.7188 427.352C70.7188 428.564 69.9277 429.373 68.9434 429.777C68.5039 429.953 68.0293 430.023 67.0273 430.023H60.6289ZM60.6289 445V434.857H67.7129C69.8574 434.857 71.3164 434.436 72.5117 433.68C74.5859 432.379 75.9043 430.111 75.9043 427.352C75.9043 424.486 74.5859 422.254 72.5469 420.988C71.334 420.215 69.8574 419.811 67.7129 419.811H55.373V445H60.6289ZM77.8906 440.641C81.3887 443.77 85.2734 445 88.6309 445C94.0449 445 98.2461 441.73 98.2461 437.283C98.2461 431.57 93.1133 430.146 88.877 429.443C85.3086 428.846 83.2344 428.371 83.2344 426.719C83.2344 425.207 85.1855 424.539 87.0312 424.539C89.2988 424.539 91.7422 425.383 93.4121 426.789L96.4004 423.045C93.6055 420.848 90.2832 419.775 87.1016 419.775C81.3535 419.775 78.1367 423.062 78.1367 427.193C78.1367 431.236 81.5117 432.994 85.7305 433.873C89.4395 434.646 93.0781 434.945 93.0781 437.301C93.0781 439.234 90.6875 440.113 88.543 440.113C85.7832 440.113 83.1465 438.777 81.0547 436.861L77.8906 440.641Z" fill="#00C4F0" />
    <defs>
      <linearGradient id="paint0_linear_4_6748" x1="76" y1="32" x2="172.755" y2="115.157" gradientUnits="userSpaceOnUse">
        <stop stop-color="#414141" />
        <stop offset="1" stop-color="#2D2D2D" />
      </linearGradient>
      <linearGradient id="paint1_linear_4_6748" x1="0" y1="198" x2="96.7553" y2="281.157" gradientUnits="userSpaceOnUse">
        <stop stop-color="#414141" />
        <stop offset="1" stop-color="#2D2D2D" />
      </linearGradient>
      <linearGradient id="paint2_linear_4_6748" x1="474" y1="0" x2="570.755" y2="83.157" gradientUnits="userSpaceOnUse">
        <stop stop-color="#414141" />
        <stop offset="1" stop-color="#2D2D2D" />
      </linearGradient>
      <linearGradient id="paint3_linear_4_6748" x1="31" y1="386" x2="127.755" y2="469.157" gradientUnits="userSpaceOnUse">
        <stop stop-color="#414141" />
        <stop offset="1" stop-color="#2D2D2D" />
      </linearGradient>
    </defs>
  </symbol>

  <!-- Pen icon -->
  <symbol id="penIcon" viewBox="0 0 24.86 40.14">
    <path class="fil0" d="M20.24 38.97c0,0.15 -0.03,0.31 -0.09,0.45 -0.06,0.14 -0.15,0.27 -0.25,0.38 -0.11,0.11 -0.24,0.2 -0.38,0.25 -0.14,0.06 -0.3,0.09 -0.45,0.09l-13.27 0c-0.15,0 -0.31,-0.03 -0.45,-0.09 -0.14,-0.06 -0.27,-0.15 -0.38,-0.25 -0.11,-0.11 -0.2,-0.24 -0.25,-0.38 -0.06,-0.14 -0.09,-0.3 -0.09,-0.45l0 -6.31 -4.12 -6.87c-0.31,-0.52 -0.49,-1.12 -0.5,-1.73 -0.01,-0.61 0.13,-1.21 0.42,-1.75l12.01 -22.31 12.01 22.31c0.29,0.54 0.43,1.14 0.42,1.75 -0.01,0.61 -0.19,1.2 -0.5,1.73l-4.12 6.87 0 6.31zm-1.84 -7.81l3.95 -6.58c0.1,-0.17 0.16,-0.37 0.17,-0.58 0,-0.2 -0.04,-0.4 -0.14,-0.58l-9.94 -18.47 -9.95 18.47c-0.1,0.18 -0.14,0.38 -0.14,0.58 0,0.2 0.06,0.4 0.17,0.57l3.95 6.58 11.94 0 -0 -0zm-6.07 -26.02l-1.56 15.59c-0.33,0.33 -0.55,0.75 -0.64,1.2 -0.09,0.45 -0.04,0.93 0.13,1.36 0.18,0.43 0.48,0.8 0.86,1.05 0.39,0.26 0.84,0.4 1.3,0.4 0.46,0 0.92,-0.14 1.3,-0.4 0.39,-0.26 0.69,-0.62 0.86,-1.05 0.18,-0.43 0.22,-0.9 0.13,-1.36 -0.09,-0.46 -0.31,-0.87 -0.64,-1.2l-1.56 -15.59 -0.1 -0.19 -0.1 0.19z" fill="#00C4F0"/>
  </symbol>

  <!-- UX/UI icon -->
  <symbol id="uxUiIcon" >
      <path d="M0.8125 7.39062V25.625C0.8125 27.1016 0.976562 28.5547 1.30469 29.9141C2.875 36.4297 8.05469 41.0234 15.3672 41.0234C22.6797 41.0234 27.8359 36.4297 29.4062 29.9141C29.7109 28.5547 29.8984 27.1016 29.8984 25.625V7.39062H22.8906V25.7422C22.8906 26.8203 22.75 27.875 22.4688 28.8828C21.6016 32.0234 19.2812 34.5312 15.3438 34.5312C11.4531 34.5312 9.13281 32.0234 8.24219 28.8828C7.96094 27.875 7.82031 26.8203 7.82031 25.7422V7.39062H0.8125ZM32.6641 41H41.3125L49.5625 28.9062L57.8125 41H66.4844L53.6172 23.2578L65.1016 7.41406H56.5L49.5625 17.5625L42.625 7.41406H34.0234L45.5078 23.2578L32.6641 41ZM89.1953 0.96875L67.7969 47.7266H75.1797L96.5781 0.96875H89.1953ZM100.328 7.39062V25.625C100.328 27.1016 100.492 28.5547 100.82 29.9141C102.391 36.4297 107.57 41.0234 114.883 41.0234C122.195 41.0234 127.352 36.4297 128.922 29.9141C129.227 28.5547 129.414 27.1016 129.414 25.625V7.39062H122.406V25.7422C122.406 26.8203 122.266 27.875 121.984 28.8828C121.117 32.0234 118.797 34.5312 114.859 34.5312C110.969 34.5312 108.648 32.0234 107.758 28.8828C107.477 27.875 107.336 26.8203 107.336 25.7422V7.39062H100.328ZM135.414 41H142.445V7.39062H135.414V41Z" fill="#00C4F0"/>
  </symbol>

  <!-- UX/UI icon -->
  <symbol id="burgerIcon" >
    <g clip-path="url(#clip0_4_6719)">
    <path d="M19.2431 0H74.0627V16.3094H19.2431V0Z" fill="#00C4F0"/>
    <path d="M19.2431 29.3438H74.0627V45.6531H19.2431V29.3438Z" fill="#00C4F0"/>
    <path d="M19.2431 58.6906H74.0627V75H19.2431V58.6906Z" fill="#00C4F0"/>
    <path d="M0 0H13.9795V16.3094H0V0Z" fill="#00C4F0"/>
    <path d="M0 29.3438H13.9795V45.6531H0V29.3438Z" fill="#00C4F0"/>
    <path d="M0 58.6906H13.9795V75H0V58.6906Z" fill="#00C4F0"/>
    </g>
    <defs>
    <clipPath id="clip0_4_6719">
    <rect width="75" height="75" fill="white"/>
    </clipPath>
    </defs>
  </symbol>

  <!-- UX/UI icon -->
  <symbol id="squareIcon" >
    <path d="M9.375 37.5H37.5V65.625H9.375V37.5Z" fill="#00C4F0"/>
    <path d="M37.5 9.375H65.625V37.5H37.5V9.375Z" fill="#00C4F0"/>
  </symbol>

  <!-- computer icon -->
  <symbol id="computerIcon">
    <path d="M0 18.75C0 18.75 0 9.375 9.375 9.375H65.625C65.625 9.375 75 9.375 75 18.75V46.875C75 46.875 75 56.25 65.625 56.25H46.875C46.875 59.3766 47.2641 61.7203 48.0469 63.2812H51.5625C52.1841 63.2812 52.7802 63.5282 53.2198 63.9677C53.6593 64.4073 53.9062 65.0034 53.9062 65.625C53.9062 66.2466 53.6593 66.8427 53.2198 67.2823C52.7802 67.7218 52.1841 67.9688 51.5625 67.9688H23.4375C22.8159 67.9688 22.2198 67.7218 21.7802 67.2823C21.3407 66.8427 21.0938 66.2466 21.0938 65.625C21.0938 65.0034 21.3407 64.4073 21.7802 63.9677C22.2198 63.5282 22.8159 63.2812 23.4375 63.2812H26.9531C27.7359 61.7203 28.125 59.3766 28.125 56.25H9.375C9.375 56.25 0 56.25 0 46.875V18.75ZM6.55312 14.7422C6.03823 15.1007 5.62743 15.5891 5.3625 16.1578C4.96293 16.9834 4.73339 17.8808 4.6875 18.7969V46.875C4.6875 48.3984 5.05312 49.2281 5.36719 49.6969C5.69531 50.1891 6.16406 50.5781 6.78281 50.8875C7.57283 51.2702 8.42893 51.4977 9.30469 51.5578L9.42188 51.5625H65.625C67.1484 51.5625 67.9781 51.1969 68.4469 50.8828C68.9618 50.5243 69.3726 50.0359 69.6375 49.4672C70.0202 48.6772 70.2477 47.8211 70.3078 46.9453L70.3125 46.8281V18.75C70.3125 17.2266 69.9469 16.3969 69.6328 15.9281C69.2745 15.4131 68.786 15.0022 68.2172 14.7375C67.3916 14.3379 66.4942 14.1084 65.5781 14.0625H9.375C7.85156 14.0625 7.02187 14.4281 6.55312 14.7422Z" fill="#00C4F0"/>
  </symbol>

  <!-- badges icon -->
  <symbol id="badgesIcon" >
   <path d="M43.75 6.25H12.5C10.8424 6.25 9.25268 6.90848 8.08058 8.08058C6.90848 9.25268 6.25 10.8424 6.25 12.5V43.75H12.5V12.5H43.75V6.25ZM56.25 18.75H25C23.3424 18.75 21.7527 19.4085 20.5806 20.5806C19.4085 21.7527 18.75 23.3424 18.75 25V56.25H25V25H56.25V18.75ZM62.5 31.25H37.5C35.8424 31.25 34.2527 31.9085 33.0806 33.0806C31.9085 34.2527 31.25 35.8424 31.25 37.5V62.5C31.25 64.1576 31.9085 65.7473 33.0806 66.9194C34.2527 68.0915 35.8424 68.75 37.5 68.75H62.5C65.9375 68.75 68.75 65.9375 68.75 62.5V37.5C68.75 34.0625 65.9375 31.25 62.5 31.25Z" fill="#00C4F0"/>
  </symbol>

  <!-- backend icon -->
  <symbol id="backendIcon" >
    <path d="M23.0468 52.4406L26.9531 47.5594L14.3781 37.5L26.9531 27.4406L23.0468 22.5594L7.42185 35.0594C7.05574 35.3521 6.76018 35.7235 6.55707 36.146C6.35396 36.5684 6.2485 37.0312 6.2485 37.5C6.2485 37.9687 6.35396 38.4315 6.55707 38.854C6.76018 39.2765 7.05574 39.6478 7.42185 39.9406L23.0468 52.4406ZM51.9531 22.5594L48.0468 27.4406L60.6218 37.5L48.0468 47.5594L51.9531 52.4406L67.5781 39.9406C67.9442 39.6478 68.2398 39.2765 68.4429 38.854C68.646 38.4315 68.7514 37.9687 68.7514 37.5C68.7514 37.0312 68.646 36.5684 68.4429 36.146C68.2398 35.7235 67.9442 35.3521 67.5781 35.0594L51.9531 22.5594ZM46.8 10.05L34.3 66.3L28.1968 64.9437L40.6968 8.69373L46.8 10.05Z" fill="#00C4F0"/>
  </symbol>


  <symbol id="simbolIcon">
   <circle cx="466" cy="506" r="351.5" stroke="#E4E4E4" stroke-width="89" shape-rendering="crispEdges" filter="url(#dropShadow0)" />
   <circle cx="1050" cy="784" r="215.5" stroke="#00C4F0" stroke-width="55" shape-rendering="crispEdges" filter="url(#dropShadow1)" />
   <circle cx="1116" cy="244" r="161" stroke="#E2A200" stroke-width="34" shape-rendering="crispEdges" filter="url(#dropShadow2)" />
  
  <defs>
    <filter id="dropShadow0" x="0" y="44" width="932" height="932" filterUnits="userSpaceOnUse" color-interpolation-filters="sRGB">
      <feOffset dy="4" />
      <feGaussianBlur stdDeviation="35" />
      <feColorMatrix type="matrix" values="0 0 0 0 1 0 0 0 0 1 0 0 0 0 1 0 0 0 0.25 0" />
      <feBlend mode="normal" in2="BackgroundImageFix" result="effect1_dropShadow" />
      <feBlend mode="normal" in="SourceGraphic" in2="effect1_dropShadow" />
    </filter>
    
    <filter id="dropShadow1" x="737" y="475" width="626" height="626" filterUnits="userSpaceOnUse" color-interpolation-filters="sRGB">
      <feOffset dy="4" />
      <feGaussianBlur stdDeviation="35" />
      <feColorMatrix type="matrix" values="0 0 0 0 0 0 0 0 0 0.757 0 0 0 0 0.925 0 0 0 0.25 0" />
      <feBlend mode="normal" in2="BackgroundImageFix" result="effect1_dropShadow" />
      <feBlend mode="normal" in="SourceGraphic" in2="effect1_dropShadow" />
    </filter>

    <filter id="dropShadow2" x="868" y="0" width="496" height="496" filterUnits="userSpaceOnUse" color-interpolation-filters="sRGB">
      <feOffset dy="4" />
      <feGaussianBlur stdDeviation="35" />
      <feColorMatrix type="matrix" values="0 0 0 0 0.886 0 0 0 0 0.635 0 0 0 0 0 0 0 0 0.25 0" />
      <feBlend mode="normal" in2="BackgroundImageFix" result="effect1_dropShadow" />
      <feBlend mode="normal" in="SourceGraphic" in2="effect1_dropShadow" />
    </filter>
  </defs>
  </symbol>


  <symbol id="arrowLeftIcon">
    <path d="M16.5 7.5L6 18L16.5 28.5" stroke="#E4E4E4" stroke-width="2" stroke-linecap="round" stroke-linejoin="round"/>
    <path d="M6 18H30" stroke="#E4E4E4" stroke-width="2" stroke-linecap="round" stroke-linejoin="round"/>
  </symbol>

  <symbol id="arrowRightIcon">
    <path d="M19.5 7.5L30 18L19.5 28.5" stroke="#E4E4E4" stroke-width="2" stroke-linecap="round" stroke-linejoin="round"/>
    <path d="M30 18H6" stroke="#E4E4E4" stroke-width="2" stroke-linecap="round" stroke-linejoin="round"/>
  </symbol>

  <symbol id="arrowTopIcon">
    <path d="M28.5 16.5L18 6L7.5 16.5" stroke="#E4E4E4" stroke-width="2" stroke-linecap="round" stroke-linejoin="round"/>
    <path d="M18 6L18 30" stroke="#E4E4E4" stroke-width="2" stroke-linecap="round" stroke-linejoin="round"/>
  </symbol>

  <symbol id="arrowBottomIcon">
    <path d="M0 5H13M13 5L10.0286 9M13 5L10.0286 1" stroke="#E2A100"/>
  </symbol>



</svg>
